<mxfile host="app.diagrams.net" modified="2022-11-06T10:07:07.254Z" agent="5.0 (Windows NT 10.0; Win64; x64) AppleWebKit/537.36 (KHTML, like Gecko) Chrome/107.0.0.0 Safari/537.36 Edg/107.0.1418.35" etag="86YZ1TqR7oO8sDugzP4q" version="20.5.2" type="github">
  <diagram id="fFO03emj91WZiigiMA-z" name="第 1 页">
    <mxGraphModel dx="731" dy="396" grid="1" gridSize="10" guides="1" tooltips="1" connect="1" arrows="1" fold="1" page="1" pageScale="1" pageWidth="827" pageHeight="1169" math="1" shadow="0">
      <root>
        <mxCell id="0" />
        <mxCell id="1" parent="0" />
        <mxCell id="MKG76FOPYPv3-6Rtzddx-63" value="" style="rounded=1;whiteSpace=wrap;html=1;dashed=1;labelBackgroundColor=none;fontSize=14;fillColor=#F9F7ED;strokeColor=#B5739D;" parent="1" vertex="1">
          <mxGeometry x="40" y="340" width="560" height="280" as="geometry" />
        </mxCell>
        <mxCell id="MKG76FOPYPv3-6Rtzddx-26" value="" style="rounded=1;whiteSpace=wrap;html=1;dashed=1;flipH=1;flipV=1;labelBackgroundColor=none;strokeColor=#7EA6E0;" parent="1" vertex="1">
          <mxGeometry x="40" y="60" width="560" height="220" as="geometry" />
        </mxCell>
        <mxCell id="MKG76FOPYPv3-6Rtzddx-1" value="" style="endArrow=classic;html=1;rounded=0;startArrow=none;" parent="1" source="m2Qj1bnmWQMWhRdCsjN2-5" edge="1">
          <mxGeometry width="50" height="50" relative="1" as="geometry">
            <mxPoint x="80" y="250" as="sourcePoint" />
            <mxPoint x="560" y="250" as="targetPoint" />
          </mxGeometry>
        </mxCell>
        <mxCell id="MKG76FOPYPv3-6Rtzddx-13" style="edgeStyle=orthogonalEdgeStyle;rounded=0;orthogonalLoop=1;jettySize=auto;html=1;exitX=1;exitY=0.5;exitDx=0;exitDy=0;" parent="1" source="MKG76FOPYPv3-6Rtzddx-2" target="MKG76FOPYPv3-6Rtzddx-11" edge="1">
          <mxGeometry relative="1" as="geometry">
            <Array as="points">
              <mxPoint x="225" y="150" />
            </Array>
          </mxGeometry>
        </mxCell>
        <mxCell id="MKG76FOPYPv3-6Rtzddx-2" value="&lt;font color=&quot;#ffffff&quot;&gt;MRFRDB&lt;/font&gt;" style="rounded=1;whiteSpace=wrap;html=1;fillColor=#b1ddf0;strokeColor=#10739e;fontSize=14;" parent="1" vertex="1">
          <mxGeometry x="120" y="130" width="90" height="40" as="geometry" />
        </mxCell>
        <mxCell id="MKG76FOPYPv3-6Rtzddx-17" style="edgeStyle=orthogonalEdgeStyle;rounded=0;orthogonalLoop=1;jettySize=auto;html=1;entryX=0.5;entryY=0;entryDx=0;entryDy=0;" parent="1" source="MKG76FOPYPv3-6Rtzddx-3" target="MKG76FOPYPv3-6Rtzddx-16" edge="1">
          <mxGeometry relative="1" as="geometry">
            <Array as="points">
              <mxPoint x="375" y="150" />
            </Array>
          </mxGeometry>
        </mxCell>
        <mxCell id="MKG76FOPYPv3-6Rtzddx-3" value="&lt;span style=&quot;color: rgb(255, 255, 255);&quot;&gt;MRFRDB&lt;/span&gt;" style="rounded=1;whiteSpace=wrap;html=1;fillColor=#b1ddf0;strokeColor=#10739e;fontSize=14;" parent="1" vertex="1">
          <mxGeometry x="270" y="130" width="90" height="40" as="geometry" />
        </mxCell>
        <mxCell id="MKG76FOPYPv3-6Rtzddx-19" style="edgeStyle=orthogonalEdgeStyle;rounded=0;orthogonalLoop=1;jettySize=auto;html=1;entryX=0.5;entryY=0;entryDx=0;entryDy=0;exitX=1;exitY=0.5;exitDx=0;exitDy=0;" parent="1" source="MKG76FOPYPv3-6Rtzddx-5" target="MKG76FOPYPv3-6Rtzddx-15" edge="1">
          <mxGeometry relative="1" as="geometry">
            <Array as="points">
              <mxPoint x="525" y="150" />
            </Array>
          </mxGeometry>
        </mxCell>
        <mxCell id="MKG76FOPYPv3-6Rtzddx-5" value="&lt;span style=&quot;color: rgb(255, 255, 255);&quot;&gt;MRFRDB&lt;/span&gt;" style="rounded=1;whiteSpace=wrap;html=1;fillColor=#b1ddf0;strokeColor=#10739e;fontSize=14;" parent="1" vertex="1">
          <mxGeometry x="420" y="130" width="90" height="40" as="geometry" />
        </mxCell>
        <mxCell id="MKG76FOPYPv3-6Rtzddx-6" value="" style="endArrow=classic;html=1;rounded=0;entryX=0;entryY=0.5;entryDx=0;entryDy=0;" parent="1" target="MKG76FOPYPv3-6Rtzddx-2" edge="1">
          <mxGeometry width="50" height="50" relative="1" as="geometry">
            <mxPoint x="100" y="250" as="sourcePoint" />
            <mxPoint x="100" y="160" as="targetPoint" />
            <Array as="points">
              <mxPoint x="100" y="150" />
            </Array>
          </mxGeometry>
        </mxCell>
        <mxCell id="m2Qj1bnmWQMWhRdCsjN2-12" style="edgeStyle=orthogonalEdgeStyle;rounded=0;orthogonalLoop=1;jettySize=auto;html=1;entryX=0.5;entryY=0;entryDx=0;entryDy=0;" parent="1" source="MKG76FOPYPv3-6Rtzddx-11" target="m2Qj1bnmWQMWhRdCsjN2-1" edge="1">
          <mxGeometry relative="1" as="geometry" />
        </mxCell>
        <mxCell id="MKG76FOPYPv3-6Rtzddx-11" value="&lt;font color=&quot;#ffffff&quot;&gt;$$\alpha$$&lt;/font&gt;" style="rounded=1;whiteSpace=wrap;html=1;fillColor=#ffcc99;strokeColor=#36393d;fontSize=14;arcSize=0;" parent="1" vertex="1">
          <mxGeometry x="210" y="190" width="30" height="20" as="geometry" />
        </mxCell>
        <mxCell id="MKG76FOPYPv3-6Rtzddx-20" style="edgeStyle=orthogonalEdgeStyle;rounded=0;orthogonalLoop=1;jettySize=auto;html=1;exitX=0.5;exitY=1;exitDx=0;exitDy=0;startArrow=none;" parent="1" source="m2Qj1bnmWQMWhRdCsjN2-8" edge="1">
          <mxGeometry relative="1" as="geometry">
            <mxPoint x="525" y="240" as="targetPoint" />
          </mxGeometry>
        </mxCell>
        <mxCell id="m2Qj1bnmWQMWhRdCsjN2-15" style="edgeStyle=orthogonalEdgeStyle;rounded=0;orthogonalLoop=1;jettySize=auto;html=1;entryX=0.5;entryY=0;entryDx=0;entryDy=0;" parent="1" source="MKG76FOPYPv3-6Rtzddx-15" target="m2Qj1bnmWQMWhRdCsjN2-8" edge="1">
          <mxGeometry relative="1" as="geometry" />
        </mxCell>
        <mxCell id="MKG76FOPYPv3-6Rtzddx-15" value="&lt;font color=&quot;#ffffff&quot;&gt;$$\alpha$$&lt;/font&gt;" style="rounded=1;whiteSpace=wrap;html=1;fillColor=#ffcc99;strokeColor=#36393d;fontSize=14;arcSize=0;" parent="1" vertex="1">
          <mxGeometry x="510" y="190" width="30" height="20" as="geometry" />
        </mxCell>
        <mxCell id="m2Qj1bnmWQMWhRdCsjN2-14" style="edgeStyle=orthogonalEdgeStyle;rounded=0;orthogonalLoop=1;jettySize=auto;html=1;entryX=0.5;entryY=0;entryDx=0;entryDy=0;" parent="1" source="MKG76FOPYPv3-6Rtzddx-16" target="m2Qj1bnmWQMWhRdCsjN2-5" edge="1">
          <mxGeometry relative="1" as="geometry" />
        </mxCell>
        <mxCell id="MKG76FOPYPv3-6Rtzddx-16" value="&lt;font color=&quot;#ffffff&quot;&gt;$$\alpha$$&lt;/font&gt;" style="rounded=1;whiteSpace=wrap;html=1;fillColor=#ffcc99;strokeColor=#36393d;fontSize=14;arcSize=0;" parent="1" vertex="1">
          <mxGeometry x="360" y="190" width="30" height="20" as="geometry" />
        </mxCell>
        <mxCell id="MKG76FOPYPv3-6Rtzddx-24" value="" style="endArrow=classic;html=1;rounded=0;entryX=0;entryY=0.5;entryDx=0;entryDy=0;" parent="1" target="MKG76FOPYPv3-6Rtzddx-3" edge="1">
          <mxGeometry width="50" height="50" relative="1" as="geometry">
            <mxPoint x="250" y="250" as="sourcePoint" />
            <mxPoint x="290" y="290" as="targetPoint" />
            <Array as="points">
              <mxPoint x="250" y="150" />
            </Array>
          </mxGeometry>
        </mxCell>
        <mxCell id="MKG76FOPYPv3-6Rtzddx-25" value="" style="endArrow=classic;html=1;rounded=0;entryX=0;entryY=0.5;entryDx=0;entryDy=0;" parent="1" target="MKG76FOPYPv3-6Rtzddx-5" edge="1">
          <mxGeometry width="50" height="50" relative="1" as="geometry">
            <mxPoint x="400" y="250" as="sourcePoint" />
            <mxPoint x="480" y="260" as="targetPoint" />
            <Array as="points">
              <mxPoint x="400" y="150" />
            </Array>
          </mxGeometry>
        </mxCell>
        <mxCell id="MKG76FOPYPv3-6Rtzddx-27" value="&lt;font style=&quot;font-size: 14px;&quot;&gt;MRFRDB:&amp;nbsp;&lt;/font&gt;&lt;span style=&quot;font-family: &amp;quot;Times New Roman&amp;quot;; font-size: 12pt; background-color: initial;&quot;&gt;Multi-Scale Receptive Field Residual Dense Block&lt;/span&gt;" style="text;html=1;strokeColor=#7EA6E0;fillColor=none;align=center;verticalAlign=middle;whiteSpace=wrap;rounded=0;dashed=1;labelBackgroundColor=none;" parent="1" vertex="1">
          <mxGeometry x="121.25" y="80" width="397.5" height="20" as="geometry" />
        </mxCell>
        <mxCell id="MKG76FOPYPv3-6Rtzddx-29" value="M&lt;br&gt;R&lt;br style=&quot;font-size: 14px;&quot;&gt;F&lt;br style=&quot;font-size: 14px;&quot;&gt;B" style="rounded=0;whiteSpace=wrap;html=1;fillColor=#e1d5e7;strokeColor=#9673a6;fontSize=14;" parent="1" vertex="1">
          <mxGeometry x="80" y="480" width="30" height="120" as="geometry" />
        </mxCell>
        <mxCell id="MKG76FOPYPv3-6Rtzddx-40" style="edgeStyle=orthogonalEdgeStyle;rounded=0;orthogonalLoop=1;jettySize=auto;html=1;entryX=0;entryY=0.5;entryDx=0;entryDy=0;fontSize=14;strokeColor=#7EA6E0;" parent="1" source="MKG76FOPYPv3-6Rtzddx-30" target="MKG76FOPYPv3-6Rtzddx-31" edge="1">
          <mxGeometry relative="1" as="geometry" />
        </mxCell>
        <mxCell id="MKG76FOPYPv3-6Rtzddx-30" value="L&lt;br&gt;R&lt;br&gt;e&lt;br&gt;L&lt;br&gt;u" style="rounded=0;whiteSpace=wrap;html=1;fillColor=#cdeb8b;strokeColor=#36393d;fontSize=14;" parent="1" vertex="1">
          <mxGeometry x="110" y="480" width="30" height="120" as="geometry" />
        </mxCell>
        <mxCell id="MKG76FOPYPv3-6Rtzddx-31" value="M&lt;br&gt;R&lt;br style=&quot;font-size: 14px;&quot;&gt;F&lt;br style=&quot;font-size: 14px;&quot;&gt;B" style="rounded=0;whiteSpace=wrap;html=1;fillColor=#e1d5e7;strokeColor=#9673a6;fontSize=14;" parent="1" vertex="1">
          <mxGeometry x="190" y="480" width="30" height="120" as="geometry" />
        </mxCell>
        <mxCell id="MKG76FOPYPv3-6Rtzddx-41" style="edgeStyle=orthogonalEdgeStyle;rounded=0;orthogonalLoop=1;jettySize=auto;html=1;entryX=0;entryY=0.5;entryDx=0;entryDy=0;fontSize=14;strokeColor=#7EA6E0;" parent="1" source="MKG76FOPYPv3-6Rtzddx-32" target="MKG76FOPYPv3-6Rtzddx-33" edge="1">
          <mxGeometry relative="1" as="geometry" />
        </mxCell>
        <mxCell id="MKG76FOPYPv3-6Rtzddx-32" value="L&lt;br&gt;R&lt;br&gt;e&lt;br&gt;L&lt;br&gt;u" style="rounded=0;whiteSpace=wrap;html=1;fillColor=#cdeb8b;strokeColor=#36393d;fontSize=14;" parent="1" vertex="1">
          <mxGeometry x="220" y="480" width="30" height="120" as="geometry" />
        </mxCell>
        <mxCell id="MKG76FOPYPv3-6Rtzddx-33" value="M&lt;br&gt;R&lt;br style=&quot;font-size: 14px;&quot;&gt;F&lt;br style=&quot;font-size: 14px;&quot;&gt;B" style="rounded=0;whiteSpace=wrap;html=1;fillColor=#e1d5e7;strokeColor=#9673a6;fontSize=14;" parent="1" vertex="1">
          <mxGeometry x="300" y="480" width="30" height="120" as="geometry" />
        </mxCell>
        <mxCell id="MKG76FOPYPv3-6Rtzddx-42" style="edgeStyle=orthogonalEdgeStyle;rounded=0;orthogonalLoop=1;jettySize=auto;html=1;entryX=0;entryY=0.5;entryDx=0;entryDy=0;fontSize=14;strokeColor=#7EA6E0;" parent="1" source="MKG76FOPYPv3-6Rtzddx-34" target="MKG76FOPYPv3-6Rtzddx-35" edge="1">
          <mxGeometry relative="1" as="geometry" />
        </mxCell>
        <mxCell id="MKG76FOPYPv3-6Rtzddx-34" value="L&lt;br&gt;R&lt;br&gt;e&lt;br&gt;L&lt;br&gt;u" style="rounded=0;whiteSpace=wrap;html=1;fillColor=#cdeb8b;strokeColor=#36393d;fontSize=14;" parent="1" vertex="1">
          <mxGeometry x="330" y="480" width="30" height="120" as="geometry" />
        </mxCell>
        <mxCell id="MKG76FOPYPv3-6Rtzddx-35" value="M&lt;br&gt;R&lt;br style=&quot;font-size: 14px;&quot;&gt;F&lt;br style=&quot;font-size: 14px;&quot;&gt;B" style="rounded=0;whiteSpace=wrap;html=1;fillColor=#e1d5e7;strokeColor=#9673a6;fontSize=14;" parent="1" vertex="1">
          <mxGeometry x="420" y="480" width="30" height="120" as="geometry" />
        </mxCell>
        <mxCell id="MKG76FOPYPv3-6Rtzddx-43" style="edgeStyle=orthogonalEdgeStyle;rounded=0;orthogonalLoop=1;jettySize=auto;html=1;entryX=0;entryY=0.5;entryDx=0;entryDy=0;fontSize=14;strokeColor=#7EA6E0;" parent="1" source="MKG76FOPYPv3-6Rtzddx-36" target="MKG76FOPYPv3-6Rtzddx-37" edge="1">
          <mxGeometry relative="1" as="geometry" />
        </mxCell>
        <mxCell id="MKG76FOPYPv3-6Rtzddx-36" value="L&lt;br&gt;R&lt;br&gt;e&lt;br&gt;L&lt;br&gt;u" style="rounded=0;whiteSpace=wrap;html=1;fillColor=#cdeb8b;strokeColor=#36393d;fontSize=14;" parent="1" vertex="1">
          <mxGeometry x="450" y="480" width="30" height="120" as="geometry" />
        </mxCell>
        <mxCell id="MKG76FOPYPv3-6Rtzddx-37" value="M&lt;br&gt;R&lt;br style=&quot;font-size: 14px;&quot;&gt;F&lt;br style=&quot;font-size: 14px;&quot;&gt;B" style="rounded=0;whiteSpace=wrap;html=1;fillColor=#e1d5e7;strokeColor=#9673a6;fontSize=14;" parent="1" vertex="1">
          <mxGeometry x="530" y="480" width="30" height="120" as="geometry" />
        </mxCell>
        <mxCell id="MKG76FOPYPv3-6Rtzddx-44" value="" style="endArrow=classic;html=1;rounded=0;fontSize=14;entryX=0;entryY=0.5;entryDx=0;entryDy=0;strokeColor=#7EA6E0;" parent="1" target="MKG76FOPYPv3-6Rtzddx-29" edge="1">
          <mxGeometry width="50" height="50" relative="1" as="geometry">
            <mxPoint x="50" y="540" as="sourcePoint" />
            <mxPoint x="80" y="490" as="targetPoint" />
          </mxGeometry>
        </mxCell>
        <mxCell id="MKG76FOPYPv3-6Rtzddx-46" value="" style="endArrow=classic;html=1;rounded=0;fontSize=14;exitX=1;exitY=0.5;exitDx=0;exitDy=0;strokeColor=#7EA6E0;" parent="1" source="MKG76FOPYPv3-6Rtzddx-37" edge="1">
          <mxGeometry width="50" height="50" relative="1" as="geometry">
            <mxPoint x="580" y="690" as="sourcePoint" />
            <mxPoint x="590" y="540" as="targetPoint" />
          </mxGeometry>
        </mxCell>
        <mxCell id="MKG76FOPYPv3-6Rtzddx-47" value="" style="endArrow=classic;html=1;rounded=0;fontSize=14;edgeStyle=orthogonalEdgeStyle;curved=1;fillColor=#cce5ff;strokeColor=#7EA6E0;" parent="1" edge="1">
          <mxGeometry width="50" height="50" relative="1" as="geometry">
            <mxPoint x="60" y="540" as="sourcePoint" />
            <mxPoint x="160" y="540" as="targetPoint" />
            <Array as="points">
              <mxPoint x="60" y="470" />
              <mxPoint x="160" y="470" />
            </Array>
          </mxGeometry>
        </mxCell>
        <mxCell id="MKG76FOPYPv3-6Rtzddx-51" value="" style="endArrow=classic;html=1;rounded=0;fontSize=14;strokeColor=#7EA6E0;curved=1;edgeStyle=orthogonalEdgeStyle;" parent="1" edge="1">
          <mxGeometry width="50" height="50" relative="1" as="geometry">
            <mxPoint x="160" y="540" as="sourcePoint" />
            <mxPoint x="280" y="540" as="targetPoint" />
            <Array as="points">
              <mxPoint x="160" y="470" />
              <mxPoint x="280" y="470" />
            </Array>
          </mxGeometry>
        </mxCell>
        <mxCell id="MKG76FOPYPv3-6Rtzddx-52" value="" style="endArrow=classic;html=1;rounded=0;fontSize=14;strokeColor=#7EA6E0;curved=1;edgeStyle=orthogonalEdgeStyle;" parent="1" edge="1">
          <mxGeometry width="50" height="50" relative="1" as="geometry">
            <mxPoint x="280" y="540" as="sourcePoint" />
            <mxPoint x="390" y="540" as="targetPoint" />
            <Array as="points">
              <mxPoint x="280" y="470" />
              <mxPoint x="390" y="470" />
            </Array>
          </mxGeometry>
        </mxCell>
        <mxCell id="MKG76FOPYPv3-6Rtzddx-53" value="" style="endArrow=classic;html=1;rounded=0;fontSize=14;strokeColor=#7EA6E0;curved=1;edgeStyle=orthogonalEdgeStyle;" parent="1" edge="1">
          <mxGeometry width="50" height="50" relative="1" as="geometry">
            <mxPoint x="390" y="540" as="sourcePoint" />
            <mxPoint x="510" y="540" as="targetPoint" />
            <Array as="points">
              <mxPoint x="390" y="470" />
              <mxPoint x="510" y="470" />
            </Array>
          </mxGeometry>
        </mxCell>
        <mxCell id="MKG76FOPYPv3-6Rtzddx-54" value="" style="endArrow=classic;html=1;fontSize=14;strokeColor=#D79B00;edgeStyle=orthogonalEdgeStyle;curved=1;" parent="1" edge="1">
          <mxGeometry width="50" height="50" relative="1" as="geometry">
            <mxPoint x="60" y="540" as="sourcePoint" />
            <mxPoint x="280" y="540" as="targetPoint" />
            <Array as="points">
              <mxPoint x="60" y="450" />
              <mxPoint x="280" y="450" />
            </Array>
          </mxGeometry>
        </mxCell>
        <mxCell id="MKG76FOPYPv3-6Rtzddx-55" value="" style="endArrow=classic;html=1;fontSize=14;strokeColor=#D79B00;curved=1;edgeStyle=orthogonalEdgeStyle;" parent="1" edge="1">
          <mxGeometry width="50" height="50" relative="1" as="geometry">
            <mxPoint x="160" y="540" as="sourcePoint" />
            <mxPoint x="390" y="540" as="targetPoint" />
            <Array as="points">
              <mxPoint x="160" y="450" />
              <mxPoint x="390" y="450" />
            </Array>
          </mxGeometry>
        </mxCell>
        <mxCell id="MKG76FOPYPv3-6Rtzddx-57" value="" style="endArrow=classic;html=1;fontSize=14;strokeColor=#D79B00;curved=1;edgeStyle=orthogonalEdgeStyle;" parent="1" edge="1">
          <mxGeometry width="50" height="50" relative="1" as="geometry">
            <mxPoint x="280" y="540" as="sourcePoint" />
            <mxPoint x="510" y="540" as="targetPoint" />
            <Array as="points">
              <mxPoint x="280" y="450" />
              <mxPoint x="510" y="450" />
            </Array>
          </mxGeometry>
        </mxCell>
        <mxCell id="MKG76FOPYPv3-6Rtzddx-58" value="" style="endArrow=classic;html=1;fontSize=14;strokeColor=#66CC00;curved=1;fillColor=#cdeb8b;edgeStyle=orthogonalEdgeStyle;" parent="1" edge="1">
          <mxGeometry width="50" height="50" relative="1" as="geometry">
            <mxPoint x="60" y="540" as="sourcePoint" />
            <mxPoint x="390" y="540" as="targetPoint" />
            <Array as="points">
              <mxPoint x="60" y="430" />
              <mxPoint x="390" y="430" />
            </Array>
          </mxGeometry>
        </mxCell>
        <mxCell id="MKG76FOPYPv3-6Rtzddx-59" value="" style="endArrow=classic;html=1;fontSize=14;strokeColor=#66CC00;curved=1;edgeStyle=orthogonalEdgeStyle;" parent="1" edge="1">
          <mxGeometry width="50" height="50" relative="1" as="geometry">
            <mxPoint x="160" y="540" as="sourcePoint" />
            <mxPoint x="510" y="540" as="targetPoint" />
            <Array as="points">
              <mxPoint x="160" y="430" />
              <mxPoint x="510" y="430" />
            </Array>
          </mxGeometry>
        </mxCell>
        <mxCell id="MKG76FOPYPv3-6Rtzddx-60" value="" style="endArrow=classic;html=1;fontSize=14;strokeColor=#A680B8;curved=1;edgeStyle=orthogonalEdgeStyle;" parent="1" edge="1">
          <mxGeometry width="50" height="50" relative="1" as="geometry">
            <mxPoint x="60" y="540" as="sourcePoint" />
            <mxPoint x="510" y="540" as="targetPoint" />
            <Array as="points">
              <mxPoint x="60" y="400" />
              <mxPoint x="510" y="400" />
            </Array>
          </mxGeometry>
        </mxCell>
        <mxCell id="MKG76FOPYPv3-6Rtzddx-64" value="&lt;font style=&quot;font-size: 14px;&quot;&gt;MRFRB:&amp;nbsp;&lt;span style=&quot;font-family: &amp;quot;Times New Roman&amp;quot;; font-size: 16px;&quot;&gt;Multi-Scale&amp;nbsp;&lt;/span&gt;&lt;/font&gt;&lt;span style=&quot;font-family: &amp;quot;Times New Roman&amp;quot;; font-size: 16px;&quot;&gt;Receptive Field Residual Block&lt;/span&gt;" style="text;html=1;strokeColor=#CDA2BE;fillColor=none;align=center;verticalAlign=middle;whiteSpace=wrap;rounded=0;dashed=1;labelBackgroundColor=none;" parent="1" vertex="1">
          <mxGeometry x="115" y="360" width="410" height="30" as="geometry" />
        </mxCell>
        <mxCell id="MKG76FOPYPv3-6Rtzddx-65" value="" style="shape=flexArrow;endArrow=classic;html=1;fontSize=14;strokeColor=#36393d;curved=1;exitX=0.5;exitY=1;exitDx=0;exitDy=0;fillColor=#F9F7ED;entryX=0.221;entryY=-0.003;entryDx=0;entryDy=0;entryPerimeter=0;" parent="1" source="MKG76FOPYPv3-6Rtzddx-2" target="MKG76FOPYPv3-6Rtzddx-63" edge="1">
          <mxGeometry width="50" height="50" relative="1" as="geometry">
            <mxPoint x="150" y="250" as="sourcePoint" />
            <mxPoint x="165" y="320" as="targetPoint" />
          </mxGeometry>
        </mxCell>
        <mxCell id="m2Qj1bnmWQMWhRdCsjN2-8" value="" style="shape=orEllipse;perimeter=ellipsePerimeter;whiteSpace=wrap;html=1;backgroundOutline=1;fillColor=#dae8fc;strokeColor=#6c8ebf;" parent="1" vertex="1">
          <mxGeometry x="515" y="240" width="20" height="20" as="geometry" />
        </mxCell>
        <mxCell id="m2Qj1bnmWQMWhRdCsjN2-5" value="" style="shape=orEllipse;perimeter=ellipsePerimeter;whiteSpace=wrap;html=1;backgroundOutline=1;fillColor=#dae8fc;strokeColor=#6c8ebf;" parent="1" vertex="1">
          <mxGeometry x="365" y="240" width="20" height="20" as="geometry" />
        </mxCell>
        <mxCell id="m2Qj1bnmWQMWhRdCsjN2-10" value="" style="endArrow=none;html=1;rounded=0;startArrow=none;" parent="1" source="m2Qj1bnmWQMWhRdCsjN2-1" target="m2Qj1bnmWQMWhRdCsjN2-5" edge="1">
          <mxGeometry width="50" height="50" relative="1" as="geometry">
            <mxPoint x="80" y="250" as="sourcePoint" />
            <mxPoint x="559.9999999999998" y="250" as="targetPoint" />
          </mxGeometry>
        </mxCell>
        <mxCell id="m2Qj1bnmWQMWhRdCsjN2-1" value="" style="shape=orEllipse;perimeter=ellipsePerimeter;whiteSpace=wrap;html=1;backgroundOutline=1;fillColor=#dae8fc;strokeColor=#6c8ebf;" parent="1" vertex="1">
          <mxGeometry x="215" y="240" width="20" height="20" as="geometry" />
        </mxCell>
        <mxCell id="m2Qj1bnmWQMWhRdCsjN2-11" value="" style="endArrow=none;html=1;rounded=0;" parent="1" target="m2Qj1bnmWQMWhRdCsjN2-1" edge="1">
          <mxGeometry width="50" height="50" relative="1" as="geometry">
            <mxPoint x="80" y="250" as="sourcePoint" />
            <mxPoint x="364.9999999999998" y="250" as="targetPoint" />
          </mxGeometry>
        </mxCell>
      </root>
    </mxGraphModel>
  </diagram>
</mxfile>
